<?xml version="1.0" standalone="no"?>
<!DOCTYPE svg PUBLIC "-//W3C//DTD SVG 20010904//EN"
 "http://www.w3.org/TR/2001/REC-SVG-20010904/DTD/svg10.dtd">
<svg version="1.0" xmlns="http://www.w3.org/2000/svg"
 width="500.000000pt" height="500.000000pt" viewBox="0 0 500.000000 500.000000"
 preserveAspectRatio="xMidYMid meet">
<metadata>
Created by potrace 1.14, written by Peter Selinger 2001-2017
</metadata>
<g transform="translate(0.000000,500.000000) scale(0.100000,-0.100000)"
fill="#000000" stroke="none">
<path d="M2017 4264 c-66 -7 -129 -15 -142 -18 -12 -3 -40 -8 -61 -12 -118
-18 -294 -92 -376 -157 -72 -56 -93 -82 -130 -157 l-33 -65 0 -1300 c-1 -946
2 -1312 11 -1345 42 -165 155 -271 349 -326 54 -16 135 -18 770 -21 760 -3
782 -2 934 48 367 120 662 482 790 970 37 140 42 173 42 274 0 218 -125 363
-352 411 -54 11 -153 15 -410 17 -350 1 -349 1 -308 37 18 16 140 177 189 250
148 221 250 454 286 655 3 17 9 50 14 75 15 79 10 227 -10 296 -41 150 -163
259 -349 314 -85 25 -82 24 -181 39 -130 19 -196 22 -560 25 -231 2 -396 -2
-473 -10z m763 -68 c311 -58 445 -155 484 -350 27 -130 -2 -317 -84 -549 -65
-184 -249 -475 -409 -648 l-66 -71 -80 -3 c-75 -3 -166 -10 -245 -20 -33 -4
-53 -6 -190 -21 -142 -15 -220 -138 -175 -275 43 -131 71 -144 311 -144 165 1
183 3 227 24 43 20 128 83 176 129 28 28 207 191 238 217 15 14 35 25 43 26 8
0 130 1 270 3 188 2 266 -1 299 -11 222 -67 305 -229 251 -493 -62 -305 -210
-606 -385 -785 -40 -41 -143 -127 -177 -148 -95 -59 -219 -112 -284 -123 -22
-3 -41 -7 -44 -9 -21 -13 -180 -18 -545 -19 -369 -1 -428 1 -489 16 -127 32
-217 102 -268 206 l-33 67 -2 1310 -2 1310 26 54 c75 156 288 262 613 305 106
14 468 15 540 2z m645 -157 c83 -77 117 -177 110 -334 -6 -156 -70 -396 -146
-547 -116 -229 -383 -587 -432 -577 -14 3 -12 9 14 39 153 172 348 488 402
650 136 406 129 647 -22 799 l-51 52 41 -21 c22 -12 60 -39 84 -61z m-1835 50
c-94 -77 -137 -132 -164 -213 -15 -43 -16 -176 -16 -1339 0 -1362 0 -1338 45
-1427 9 -19 36 -57 58 -84 l41 -50 -43 25 c-63 35 -124 108 -152 181 l-24 63
0 1295 1 1295 26 56 c31 68 100 138 183 184 69 40 81 43 45 14z m1726 -72 c62
-69 87 -140 90 -262 2 -55 -1 -118 -6 -140 -4 -22 -11 -56 -14 -75 -8 -52 -52
-201 -86 -289 -87 -225 -411 -680 -478 -670 l-22 4 26 30 c60 70 82 96 98 117
212 288 307 477 375 744 38 148 46 320 20 416 -12 47 -51 128 -71 150 -7 8
-24 27 -38 43 l-25 28 44 -24 c24 -13 63 -46 87 -72z m-1650 26 c-52 -51 -90
-109 -110 -166 -15 -44 -16 -170 -16 -1341 0 -1157 2 -1299 16 -1347 23 -77
46 -119 97 -172 50 -54 48 -58 -8 -21 -85 56 -128 112 -160 206 -14 42 -15
184 -13 1345 l3 1298 22 45 c28 56 73 106 138 153 65 47 80 47 31 0z m1176
-1585 c-31 -29 -61 -57 -67 -63 -7 -5 -46 -41 -87 -79 -74 -66 -155 -126 -171
-126 -4 0 9 15 30 33 20 17 44 39 53 47 38 35 224 206 243 222 11 10 28 18 38
18 12 0 0 -17 -39 -52z m-147 -16 c-181 -171 -297 -264 -311 -249 -2 2 17 24
43 47 27 24 97 89 156 144 60 56 116 104 125 108 46 18 41 2 -13 -50z m-150
-9 c-27 -25 -84 -77 -125 -115 l-75 -69 -11 38 c-14 47 -9 79 19 120 33 49 76
64 197 70 l45 3 -50 -47z m1345 -34 c70 -71 99 -167 89 -294 -19 -249 -176
-628 -340 -820 -98 -113 -212 -207 -314 -256 -33 -16 -52 -23 -41 -17 185 126
341 306 441 508 20 41 41 83 46 93 27 50 88 238 104 317 2 8 8 35 15 60 17 59
22 213 9 270 -14 66 -53 140 -96 184 l-38 39 42 -22 c23 -11 61 -40 83 -62z
m124 5 c95 -92 119 -229 76 -424 -69 -315 -223 -612 -409 -788 -57 -54 -155
-128 -196 -149 -34 -17 -32 -15 46 50 133 110 246 256 333 432 67 134 98 217
136 360 38 141 41 164 42 260 1 127 -29 210 -105 292 l-41 45 41 -21 c22 -12
57 -38 77 -57z m-1844 38 c-37 -50 -47 -154 -18 -189 6 -7 8 -13 4 -13 -4 0 0
-13 9 -30 19 -38 19 -39 -7 -33 -37 9 -64 40 -83 97 -27 80 -11 133 55 179 13
9 33 17 43 17 16 0 16 -2 -3 -28z m137 10 c-43 -47 -54 -135 -25 -205 9 -23 8
-31 -3 -38 -27 -17 -40 -9 -61 39 -38 86 -23 151 44 195 48 31 68 35 45 9z"/>
</g>
</svg>
