<svg id="Layer_2" data-name="Layer 2" xmlns="http://www.w3.org/2000/svg" viewBox="0 0 290.02901 341.85595"><defs><style>.cls-1,.cls-2,.cls-3{fill:none;stroke-miterlimit:10;stroke-width:6px;}.cls-1{stroke:#2aff8b;}.cls-2{stroke:#bf00ff;}.cls-3{stroke:#fece00;}</style></defs><path class="cls-1" d="M130.5,373.5V124.44s-8-45.94,89-48.94,133,15,98,105c0,0-18,38-45,64l-35,32s-26,22-33-3c0,0-7.68-15,10.66-23.5l43.34-4.5,84-1s60-2,42,62c0,0-20,103-109,104H182.76S136.5,413.5,130.5,373.5Z" transform="translate(-127.33961 -72.19509)"/><path class="cls-2" d="M144,374V124.94S136,79,233,76s133,15,98,105c0,0-18,38-45,64l-35,32s-26,22-33-3c0,0-7.68-15,10.66-23.5L272,246l84-1s60-2,42,62c0,0-20,103-109,104H196.26S150,414,144,374Z" transform="translate(-127.33961 -72.19509)"/><path class="cls-3" d="M157,374V124.94S149,79,246,76s133,15,98,105c0,0-18,38-45,64l-35,32s-26,22-33-3c0,0-7.68-15,10.66-23.5L285,246l84-1s60-2,42,62c0,0-20,103-109,104H209.26S163,414,157,374Z" transform="translate(-127.33961 -72.19509)"/></svg>